<?xml version="1.0" encoding="UTF-8"?>
<svg width="27px" height="26px" viewBox="0 0 27 26" version="1.1" xmlns="http://www.w3.org/2000/svg" xmlns:xlink="http://www.w3.org/1999/xlink">
    <!-- Generator: Sketch 42 (36781) - http://www.bohemiancoding.com/sketch -->
    <title>insta</title>
    <desc>Created with Sketch.</desc>
    <defs></defs>
    <g id="WEB" stroke="none" stroke-width="1" fill="none" fill-rule="evenodd">
        <g id="home1" transform="translate(-1744.000000, -50.000000)" fill="#FFFFFF">
            <g id="TOP">
                <g id="social" transform="translate(1699.000000, 49.000000)">
                    <g id="insta" transform="translate(45.607843, 1.000000)">
                        <path d="M12.8470588,6.4745098 C9.27843137,6.4745098 6.32156863,9.38039216 6.32156863,13 C6.32156863,16.6196078 9.22745098,19.5254902 12.8470588,19.5254902 C16.4666667,19.5254902 19.372549,16.5686275 19.372549,13 C19.372549,9.43137255 16.4156863,6.4745098 12.8470588,6.4745098 Z M12.8470588,17.1803922 C10.5529412,17.1803922 8.66666667,15.2941176 8.66666667,13 C8.66666667,10.7058824 10.5529412,8.81960784 12.8470588,8.81960784 C15.1411765,8.81960784 17.027451,10.7058824 17.027451,13 C17.027451,15.2941176 15.1411765,17.1803922 12.8470588,17.1803922 Z" id="Shape"></path>
                        <ellipse id="Oval" cx="19.627451" cy="6.32156863" rx="1.47843137" ry="1.47843137"></ellipse>
                        <path d="M23.4509804,2.49803922 C22.1254902,1.12156863 20.2392157,0.407843137 18.0980392,0.407843137 L7.59607843,0.407843137 C3.16078431,0.407843137 0.203921569,3.36470588 0.203921569,7.8 L0.203921569,18.2509804 C0.203921569,20.4431373 0.917647059,22.3294118 2.34509804,23.7058824 C3.72156863,25.0313725 5.55686275,25.6941176 7.64705882,25.6941176 L18.0470588,25.6941176 C20.2392157,25.6941176 22.0745098,24.9803922 23.4,23.7058824 C24.7764706,22.3803922 25.4901961,20.4941176 25.4901961,18.3019608 L25.4901961,7.8 C25.4901961,5.65882353 24.7764706,3.82352941 23.4509804,2.49803922 Z M23.145098,18.3019608 C23.145098,19.8823529 22.6862745,21.1568627 21.7686275,22.0235294 C20.8509804,22.8901961 19.5764706,23.3490196 18.0470588,23.3490196 L7.64705882,23.3490196 C6.11764706,23.3490196 4.84313725,22.8901961 3.9254902,22.0235294 C3.00784314,21.1058824 2.54901961,19.8313725 2.54901961,18.2509804 L2.54901961,7.8 C2.54901961,6.27058824 3.00784314,4.99607843 3.9254902,4.07843137 C4.79215686,3.21176471 6.11764706,2.75294118 7.64705882,2.75294118 L18.1490196,2.75294118 C19.6784314,2.75294118 20.9529412,3.21176471 21.8705882,4.12941176 C22.7372549,5.04705882 23.2470588,6.32156863 23.2470588,7.8 L23.2470588,18.3019608 L23.145098,18.3019608 Z" id="Shape"></path>
                    </g>
                </g>
            </g>
        </g>
    </g>
</svg>